<?xml version="1.0" standalone="no"?>
<!DOCTYPE svg PUBLIC "-//W3C//DTD SVG 20010904//EN"
 "http://www.w3.org/TR/2001/REC-SVG-20010904/DTD/svg10.dtd">
<svg version="1.0" xmlns="http://www.w3.org/2000/svg"
 width="200.000000pt" height="160.000000pt" viewBox="0 0 200.000000 160.000000"
 preserveAspectRatio="xMidYMid meet">
<metadata>
Created by potrace 1.16, written by Peter Selinger 2001-2019
</metadata>
<g transform="translate(0.000000,160.000000) scale(0.100000,-0.100000)"
fill="#000000" stroke="none">
<path d="M1594 1436 c-41 -18 -88 -77 -121 -152 -25 -59 -29 -63 -67 -68 -23
-4 -62 -6 -88 -6 -53 1 -118 -27 -142 -62 -14 -19 -19 -21 -36 -10 -61 37
-185 -12 -226 -90 l-14 -28 -33 20 c-39 24 -102 26 -158 4 -47 -19 -94 -77
-109 -135 -12 -44 -50 -132 -55 -127 -2 2 23 107 56 233 32 127 59 244 59 262
0 65 -35 104 -114 125 -38 10 -53 9 -101 -6 -35 -11 -54 -22 -51 -29 33 -80
34 -76 -24 -347 -54 -252 -62 -310 -58 -405 l5 -90 -47 -52 c-56 -61 -89 -128
-97 -193 -5 -40 -2 -51 17 -70 28 -28 64 -22 126 21 126 86 324 157 644 229
367 82 559 138 669 195 147 75 204 172 205 345 0 78 -3 102 -21 135 -24 47
-48 70 -84 84 l-27 10 15 54 c20 69 11 119 -24 147 -30 23 -55 25 -99 6z m74
-104 c-6 -64 -49 -168 -99 -237 -49 -69 -41 -163 13 -134 22 12 61 78 88 152
22 59 28 64 59 47 52 -27 68 -193 30 -295 -42 -113 -128 -169 -380 -244 -140
-43 -164 -48 -154 -31 4 6 10 8 15 5 4 -3 19 4 31 16 13 11 18 18 11 14 -10
-5 -11 0 -6 19 5 23 3 26 -18 26 -17 0 -29 -8 -38 -27 -12 -28 -12 -28 -21 -6
-5 13 -11 23 -14 23 -4 0 -4 -4 0 -10 8 -13 -5 -60 -17 -60 -6 0 -8 13 -6 30
5 36 -5 39 -20 6 -7 -17 -7 -27 1 -35 15 -15 27 -14 49 6 17 15 18 15 18 -1 0
-23 -18 -29 -270 -86 -328 -74 -500 -136 -657 -236 l-53 -34 0 35 c0 69 75
175 164 230 30 18 30 18 8 26 -12 5 -27 21 -33 36 -12 31 -6 165 12 241 46
205 89 436 89 484 0 48 3 58 18 59 55 4 109 -21 117 -54 3 -12 -24 -138 -59
-279 -71 -282 -82 -339 -72 -392 14 -73 49 -35 126 134 23 52 49 116 56 141
18 58 51 89 110 100 37 7 53 6 70 -6 26 -17 48 -85 39 -116 -6 -16 -3 -20 11
-17 22 4 41 39 49 89 8 50 43 99 90 126 47 27 68 29 89 7 36 -36 8 -124 -39
-124 -22 0 -24 2 -15 26 6 14 10 37 10 52 l0 27 -20 -25 c-25 -32 -50 -105
-50 -146 0 -40 24 -67 54 -59 40 12 94 82 107 140 18 80 58 147 102 170 35 19
39 19 65 4 27 -15 30 -15 51 2 20 16 51 26 51 16 0 -1 -11 -47 -25 -101 -28
-110 -31 -140 -13 -134 27 9 53 64 79 168 49 191 109 290 176 290 25 0 26 -1
21 -58z m-408 -684 c0 -17 -18 -44 -24 -37 -8 7 5 49 15 49 5 0 9 -6 9 -12z"/>
<path d="M1607 1283 c-31 -72 -51 -133 -44 -139 5 -6 62 126 72 169 11 44 0
31 -28 -30z"/>
<path d="M1703 1118 c-6 -7 -18 -36 -27 -64 -21 -66 -68 -128 -107 -145 -27
-10 -36 -10 -58 2 -14 8 -31 24 -37 37 -10 21 -11 21 -27 -13 -23 -48 -61 -71
-92 -57 -14 7 -25 17 -25 23 0 7 -10 -3 -23 -22 -33 -49 -82 -53 -118 -10
l-26 32 -27 -41 c-60 -91 -155 -107 -194 -33 l-12 22 -38 -25 c-21 -14 -46
-40 -56 -58 -41 -77 -123 -85 -167 -17 l-24 39 -32 -70 c-18 -38 -45 -88 -61
-112 l-29 -42 91 27 c78 23 277 63 423 85 l43 6 -16 -46 c-19 -56 -34 -68 -34
-27 0 17 -4 31 -9 31 -12 0 -22 -30 -14 -42 3 -6 2 -8 -3 -5 -5 3 -20 -8 -33
-24 -13 -16 -27 -29 -32 -29 -13 0 -11 48 3 56 8 5 9 2 4 -11 -5 -15 -4 -16 9
-5 22 18 18 32 -7 28 -31 -4 -52 -48 -33 -67 8 -9 20 -11 32 -6 10 4 27 7 39
6 11 -1 26 5 33 13 7 8 18 13 24 10 7 -2 20 8 29 23 l17 28 1 -27 c0 -32 11
-36 31 -11 12 14 12 16 0 8 -11 -6 -12 -1 -7 29 7 36 -6 51 -18 20 -11 -29
-17 -8 -6 22 10 29 13 30 147 53 248 41 390 86 447 139 61 57 84 169 52 247
-17 39 -19 41 -33 23z m-23 -191 c0 -2 -9 -14 -20 -27 -11 -13 -20 -19 -20
-15 0 5 7 17 17 27 15 17 23 22 23 15z m-122 -74 c123 14 -112 -53 -293 -83
-66 -11 -133 -23 -150 -26 l-30 -6 30 23 c17 13 33 28 37 33 5 7 18 6 41 -2
45 -16 66 -15 102 4 17 9 54 20 84 25 32 5 62 16 74 28 16 16 24 18 40 9 11
-6 40 -8 65 -5z m-632 -139 c-28 -6 -52 -9 -54 -8 -5 3 20 48 31 55 5 4 24 -3
42 -15 l32 -21 -51 -11z m79 -154 c-3 -5 -10 -10 -16 -10 -5 0 -9 5 -9 10 0 6
7 10 16 10 8 0 12 -4 9 -10z"/>
<path d="M1282 1107 c-24 -29 -42 -89 -42 -141 0 -64 12 -77 46 -45 15 14 20
25 14 29 -8 5 -4 19 10 43 38 63 13 164 -28 114z"/>
<path d="M758 953 c-29 -33 -38 -62 -38 -117 0 -36 5 -60 16 -70 20 -21 27
-20 55 3 24 19 24 20 4 34 -31 23 -10 69 43 93 2 1 -4 18 -12 38 -17 40 -43
47 -68 19z"/>
<path d="M872 614 c-7 -8 -10 -19 -7 -24 6 -10 -21 -70 -31 -70 -3 0 -3 14 1
30 6 27 4 30 -17 30 -31 0 -68 -57 -47 -71 18 -11 22 -11 56 3 15 6 35 10 45
9 9 -1 20 3 24 10 4 8 3 9 -4 5 -18 -11 -15 35 3 61 11 16 12 22 2 26 -7 2
-18 -2 -25 -9z m-52 -56 c0 -19 -18 -43 -25 -36 -9 9 4 48 16 48 5 0 9 -6 9
-12z"/>
<path d="M700 574 c-6 -14 -10 -31 -10 -38 0 -6 -5 -17 -11 -23 -7 -7 -8 -17
-1 -28 8 -15 11 -13 21 16 24 66 24 135 1 73z"/>
<path d="M729 563 c-1 -5 -1 -12 0 -17 1 -4 -3 -14 -9 -21 -13 -15 -3 -45 15
-45 8 0 17 5 21 12 4 6 3 8 -4 4 -15 -9 -27 13 -13 27 14 14 15 47 1 47 -5 0
-11 -3 -11 -7z"/>
<path d="M634 537 c-3 -9 -2 -22 2 -29 4 -7 4 -10 -1 -6 -11 10 -35 -10 -35
-29 0 -22 29 -27 49 -8 15 13 17 23 10 47 -11 39 -17 45 -25 25z m1 -67 c-3
-5 -10 -10 -16 -10 -5 0 -9 5 -9 10 0 6 7 10 16 10 8 0 12 -4 9 -10z"/>
</g>
</svg>
